<?xml version="1.0" encoding="UTF-8"?>
<!DOCTYPE svg PUBLIC "-//W3C//DTD SVG 1.1//EN" "http://www.w3.org/Graphics/SVG/1.1/DTD/svg11.dtd">
<svg xmlns="http://www.w3.org/2000/svg" version="1.1" width="3600px" height="4800px" style="shape-rendering:geometricPrecision; text-rendering:geometricPrecision; image-rendering:optimizeQuality; fill-rule:evenodd; clip-rule:evenodd" xmlns:xlink="http://www.w3.org/1999/xlink">
<g><path style="opacity:0.884" fill="#f9f9f9" d="M 542.5,884.5 C 719.796,979.566 896.629,1075.57 1073,1172.5C 1288.61,1032.98 1525.28,962.646 1783,961.5C 2040.96,962.834 2277.96,1033.17 2494,1172.5C 2669.72,1077.39 2845.22,981.888 3020.5,886C 3022.02,884.991 3023.69,884.491 3025.5,884.5C 2990.02,1131.85 2954.35,1379.19 2918.5,1626.5C 3067.84,1901.36 3115.34,2193.03 3061,2501.5C 3006.86,2777.02 2879.36,3011.52 2678.5,3205C 2451.86,3416.76 2182.86,3534.76 1871.5,3559C 1557.68,3577.25 1273.35,3495.58 1018.5,3314C 799.213,3151.98 644.047,2942.15 553,2684.5C 473.881,2447.89 461.881,2207.89 517,1964.5C 545.08,1844.91 589.247,1731.74 649.5,1625C 613.512,1378.25 577.845,1131.42 542.5,884.5 Z"/></g>
<g><path style="opacity:1" fill="#000000" d="M 549.5,893.5 C 724.14,988.488 898.806,1083.49 1073.5,1178.5C 1304.67,1028.78 1558.33,958.614 1834.5,968C 2073.53,978.815 2293.19,1048.98 2493.5,1178.5C 2668.4,1083.55 2843.4,988.885 3018.5,894.5C 2982.97,1138.56 2947.97,1382.73 2913.5,1627C 2917.43,1638.03 2922.6,1648.53 2929,1658.5C 3066.65,1925.78 3108.65,2207.44 3055,2503.5C 2994.58,2803.96 2848.75,3053.46 2617.5,3252C 2372.84,3454.37 2090.84,3555.87 1771.5,3556.5C 1453.76,3550.46 1174.76,3444.96 934.5,3240C 692.62,3025.81 547.787,2757.98 500,2436.5C 463.299,2149.01 514.799,1878.51 654.5,1625C 619.784,1381.1 584.784,1137.26 549.5,893.5 Z"/></g>
<g><path style="opacity:1" fill="#fefefe" d="M 1083.5,1515.5 C 1094.9,1514.96 1105.9,1516.79 1116.5,1521C 1259.39,1574.78 1402.05,1629.11 1544.5,1684C 1567.8,1701.5 1574.63,1724 1565,1751.5C 1551.98,1778.09 1530.81,1788.93 1501.5,1784C 1354.84,1729.17 1208.5,1673.5 1062.5,1617C 1040.31,1600.11 1033.15,1578.27 1041,1551.5C 1049.05,1532.09 1063.21,1520.09 1083.5,1515.5 Z"/></g>
<g><path style="opacity:1" fill="#fefefe" d="M 2387.5,1515.5 C 2424.62,1514.36 2445.95,1532.03 2451.5,1568.5C 2451.48,1589.03 2443.15,1605.2 2426.5,1617C 2281.07,1672.92 2135.4,1728.26 1989.5,1783C 1963.61,1789.15 1943.11,1781.32 1928,1759.5C 1912.58,1729.69 1918.08,1704.52 1944.5,1684C 2091.85,1626.72 2239.51,1570.56 2387.5,1515.5 Z"/></g>
<g><path style="opacity:1" fill="#fefefe" d="M 1308.5,1786.5 C 1331.41,1785.7 1350.24,1794.04 1365,1811.5C 1386.5,1838.49 1402.84,1868.49 1414,1901.5C 1438.51,1976.88 1453.17,2054.22 1458,2133.5C 1468.07,2261 1458.74,2387 1430,2511.5C 1420.05,2551.35 1405.39,2589.35 1386,2625.5C 1378.03,2638.81 1368.53,2650.98 1357.5,2662C 1330.44,2685.14 1303.44,2685.14 1276.5,2662C 1258.49,2643.5 1244.32,2622.34 1234,2598.5C 1220.73,2567.7 1210.07,2536.03 1202,2503.5C 1170.47,2358.3 1164.14,2211.96 1183,2064.5C 1189.43,2016.37 1199.43,1969.04 1213,1922.5C 1223.37,1888.44 1238.04,1856.44 1257,1826.5C 1265.5,1814 1276,1803.5 1288.5,1795C 1294.92,1791.28 1301.59,1788.45 1308.5,1786.5 Z"/></g>
<g><path style="opacity:1" fill="#fefefe" d="M 2160.5,1786.5 C 2183.41,1785.7 2202.24,1794.04 2217,1811.5C 2238.5,1838.49 2254.84,1868.49 2266,1901.5C 2283.53,1954.61 2295.86,2008.94 2303,2064.5C 2320.72,2203.94 2316.06,2342.61 2289,2480.5C 2279.53,2528.59 2263.86,2574.59 2242,2618.5C 2231.59,2638.16 2217.76,2654.99 2200.5,2669C 2174.72,2684.94 2150.72,2682.61 2128.5,2662C 2110.49,2643.5 2096.32,2622.34 2086,2598.5C 2069.84,2560.36 2057.51,2521.03 2049,2480.5C 2017.94,2321.42 2016.61,2162.09 2045,2002.5C 2053.68,1956.74 2067.02,1912.41 2085,1869.5C 2094.49,1848.49 2106.49,1829.16 2121,1811.5C 2131.93,1799.46 2145.09,1791.13 2160.5,1786.5 Z"/></g>
</svg>
