<?xml version="1.0" encoding="UTF-8"?>
<svg id="katman_1" xmlns="http://www.w3.org/2000/svg" version="1.1" xmlns:xlink="http://www.w3.org/1999/xlink" viewBox="0 0 3600 4800">
  <!-- Generator: Adobe Illustrator 29.3.0, SVG Export Plug-In . SVG Version: 2.1.0 Build 146)  -->
  <defs>
    <style>
      .st0 {
        fill: #010101;
      }

      .st0, .st1, .st2 {
        fill-rule: evenodd;
      }

      .st2 {
        fill: #fefefe;
        isolation: isolate;
        opacity: 1;
        stroke: #000;
        stroke-miterlimit: 10;
        stroke-width: 19px;
      }
    </style>
  </defs>
  <path class="st2" d="M542.5,884.5c177.3,95.1,354.1,191.1,530.5,288,215.6-139.5,452.3-209.9,710-211,258,1.3,495,71.7,711,211,175.7-95.1,351.2-190.6,526.5-286.5,1.5-1,3.2-1.5,5-1.5-35.5,247.3-71.1,494.7-107,742,149.3,274.9,196.8,566.5,142.5,875-54.1,275.5-181.6,510-382.5,703.5-226.6,211.8-495.6,329.8-807,354-313.8,18.2-598.2-63.4-853-245-219.3-162-374.5-371.9-465.5-629.5-79.1-236.6-91.1-476.6-36-720,28.1-119.6,72.2-232.8,132.5-339.5-36-246.8-71.7-493.6-107-740.5Z"/>
  <path class="st0" d="M1082.5,1514.5c11-1,21.7.5,32,4.5,143.1,54.1,286.1,108.4,429,163,27.4,20.1,33.9,45.6,19.5,76.5-14.8,22.6-35.7,31.5-62.5,26.5-145.9-54.7-291.6-110.1-437-166-20.4-13.8-29.2-32.9-26.5-57.5,5.6-25.1,20.7-40.7,45.5-47Z"/>
  <path class="st0" d="M2386.5,1514.5c30.8-2.3,52,10.7,63.5,39,6.8,27.5-1.4,49.4-24.5,65.5-145.8,55.7-291.8,111.1-438,166-34.1,4.9-56.6-9-67.5-41.5-4.9-26.2,3.6-46.7,25.5-61.5,146.9-56.4,293.9-112.3,441-167.5Z"/>
  <path class="st1" d="M1308.5,1785.5c15.4-1.2,29.4,2.7,42,11.5,17.9,14.9,32,32.8,42.5,53.5,20.8,42,35.8,86,45,132,17,81.3,25.1,163.4,24.5,246.5,1.5,104.7-11.4,207.6-38.5,308.5-8.9,29.5-20.6,57.8-35,85-10.4,19-24.3,35.2-41.5,48.5-24.5,14.3-47.5,12.3-69-6-20.9-20-36.8-43.5-47.5-70.5-15.1-36.3-26.8-73.6-35-112-23.3-116.6-30.3-234.3-21-353,4.8-71.8,17.5-142.1,38-211,10.9-37.5,27.9-71.8,51-103,8.8-10.8,19.3-19.3,31.5-25.5,4.4-1.7,8.7-3.2,13-4.5Z"/>
  <path class="st1" d="M2160.5,1785.5c15.4-1.2,29.4,2.7,42,11.5,17.9,14.9,32,32.8,42.5,53.5,19.1,39.3,33.5,80.3,43,123,23.1,108.8,31.4,218.8,25,330-3.3,79.5-15.6,157.5-37,234-8.9,29.5-20.6,57.8-35,85-10.4,19-24.3,35.2-41.5,48.5-24.4,14.3-47.4,12.3-69-6-21.3-20.7-37.4-44.8-48.5-72.5-25.3-64.1-41.6-130.4-49-199-12.2-105-12.5-210-1-315,5.7-49.8,15.3-98.8,29-147,10.4-38.3,26.4-74,48-107,10.4-14.3,23.2-25.8,38.5-34.5,4.4-1.7,8.7-3.2,13-4.5Z"/>
</svg>