<svg aria-hidden="true" style="position: absolute; width: 0; height: 0; overflow: hidden;" version="1.1" xmlns="http://www.w3.org/2000/svg" xmlns:xlink="http://www.w3.org/1999/xlink">
<defs>
<symbol id="icon-profile" viewBox="0 0 32 32">
<path stroke-linejoin="round" stroke-linecap="round" stroke-miterlimit="4" stroke-width="0.75" d="M16.16 17.040c-0.093-0.013-0.213-0.013-0.32 0-2.347-0.080-4.213-2-4.213-4.36 0-2.413 1.947-4.373 4.373-4.373 2.413 0 4.373 1.96 4.373 4.373-0.013 2.36-1.867 4.28-4.213 4.36z"></path>
<path stroke-linejoin="round" stroke-linecap="round" stroke-miterlimit="4" stroke-width="0.75" d="M24.987 25.84c-2.373 2.173-5.52 3.493-8.987 3.493s-6.613-1.32-8.987-3.493c0.133-1.253 0.933-2.48 2.36-3.44 3.653-2.427 9.627-2.427 13.253 0 1.427 0.96 2.227 2.187 2.36 3.44z"></path>
<path stroke-linejoin="round" stroke-linecap="round" stroke-miterlimit="4" stroke-width="0.75" d="M16 29.333c7.364 0 13.333-5.97 13.333-13.333s-5.97-13.333-13.333-13.333c-7.364 0-13.333 5.97-13.333 13.333s5.97 13.333 13.333 13.333z"></path>
</symbol>
<symbol id="icon-whitelogo" viewBox="0 0 24 32">
<path fill="#fefefe" style="fill: var(--color1, #fefefe)" d="M3.617 5.897c1.182 0.634 2.361 1.274 3.537 1.92 1.437-0.93 3.015-1.399 4.733-1.407 1.72 0.009 3.3 0.478 4.74 1.407 1.171-0.634 2.341-1.271 3.51-1.91 0.010-0.007 0.021-0.010 0.033-0.010-0.237 1.649-0.474 3.298-0.713 4.947 0.995 1.833 1.312 3.777 0.95 5.833-0.361 1.837-1.211 3.4-2.55 4.69-1.511 1.412-3.304 2.199-5.38 2.36-2.092 0.121-3.988-0.423-5.687-1.633-1.462-1.080-2.497-2.479-3.103-4.197-0.527-1.577-0.607-3.177-0.24-4.8 0.187-0.797 0.481-1.552 0.883-2.263-0.24-1.645-0.478-3.291-0.713-4.937z"></path>
<path fill="#010101" style="fill: var(--color2, #010101)" d="M7.217 10.097c0.073-0.007 0.145 0.003 0.213 0.030 0.954 0.361 1.907 0.723 2.86 1.087 0.183 0.134 0.226 0.304 0.13 0.51-0.099 0.151-0.238 0.21-0.417 0.177-0.973-0.365-1.944-0.734-2.913-1.107-0.136-0.092-0.195-0.219-0.177-0.383 0.037-0.167 0.138-0.271 0.303-0.313z"></path>
<path fill="#010101" style="fill: var(--color2, #010101)" d="M15.91 10.097c0.205-0.015 0.347 0.071 0.423 0.26 0.045 0.183-0.009 0.329-0.163 0.437-0.972 0.371-1.945 0.741-2.92 1.107-0.227 0.033-0.377-0.060-0.45-0.277-0.033-0.175 0.024-0.311 0.17-0.41 0.979-0.376 1.959-0.749 2.94-1.117z"></path>
<path fill="#000" style="fill: var(--color3, #000)" d="M8.723 11.903c0.103-0.008 0.196 0.018 0.28 0.077 0.119 0.099 0.213 0.219 0.283 0.357 0.139 0.28 0.239 0.573 0.3 0.88 0.113 0.542 0.167 1.089 0.163 1.643 0.010 0.698-0.076 1.384-0.257 2.057-0.059 0.197-0.137 0.385-0.233 0.567-0.069 0.127-0.162 0.235-0.277 0.323-0.163 0.095-0.317 0.082-0.46-0.040-0.139-0.133-0.245-0.29-0.317-0.47-0.101-0.242-0.179-0.491-0.233-0.747-0.155-0.777-0.202-1.562-0.14-2.353 0.032-0.479 0.117-0.947 0.253-1.407 0.073-0.25 0.186-0.479 0.34-0.687 0.059-0.072 0.129-0.129 0.21-0.17 0.029-0.011 0.058-0.021 0.087-0.030z"></path>
<path fill="#000" style="fill: var(--color3, #000)" d="M14.403 11.903c0.103-0.008 0.196 0.018 0.28 0.077 0.119 0.099 0.213 0.219 0.283 0.357 0.127 0.262 0.223 0.535 0.287 0.82 0.154 0.725 0.209 1.459 0.167 2.2-0.022 0.53-0.104 1.050-0.247 1.56-0.059 0.197-0.137 0.385-0.233 0.567-0.069 0.127-0.162 0.235-0.277 0.323-0.163 0.095-0.316 0.082-0.46-0.040-0.142-0.138-0.249-0.299-0.323-0.483-0.169-0.427-0.277-0.869-0.327-1.327-0.081-0.7-0.083-1.4-0.007-2.1 0.038-0.332 0.102-0.659 0.193-0.98 0.069-0.255 0.176-0.493 0.32-0.713 0.069-0.095 0.155-0.172 0.257-0.23 0.029-0.011 0.058-0.021 0.087-0.030z"></path>
</symbol>
<symbol id="icon-blacklogo" viewBox="0 0 24 32">
<path fill="#f9f9f9" style="fill: var(--color4, #f9f9f9)" opacity="0.884" d="M3.617 5.897c1.182 0.634 2.361 1.274 3.537 1.92 1.437-0.93 3.015-1.399 4.733-1.407 1.72 0.009 3.3 0.478 4.74 1.407 1.171-0.634 2.341-1.271 3.51-1.91 0.010-0.007 0.021-0.010 0.033-0.010-0.237 1.649-0.474 3.298-0.713 4.947 0.996 1.832 1.312 3.777 0.95 5.833-0.361 1.837-1.211 3.4-2.55 4.69-1.511 1.412-3.304 2.198-5.38 2.36-2.092 0.122-3.988-0.423-5.687-1.633-1.462-1.080-2.496-2.479-3.103-4.197-0.527-1.577-0.607-3.177-0.24-4.8 0.187-0.797 0.482-1.552 0.883-2.263-0.24-1.645-0.478-3.291-0.713-4.937z"></path>
<path fill="#000" style="fill: var(--color3, #000)" d="M3.663 5.957c1.164 0.633 2.329 1.267 3.493 1.9 1.541-0.998 3.232-1.466 5.073-1.403 1.594 0.072 3.058 0.54 4.393 1.403 1.166-0.633 2.333-1.264 3.5-1.893-0.237 1.627-0.47 3.255-0.7 4.883 0.026 0.074 0.061 0.144 0.103 0.21 0.918 1.782 1.198 3.66 0.84 5.633-0.403 2.003-1.375 3.666-2.917 4.99-1.631 1.349-3.511 2.026-5.64 2.030-2.118-0.040-3.978-0.744-5.58-2.11-1.613-1.428-2.578-3.213-2.897-5.357-0.245-1.917 0.099-3.72 1.030-5.41-0.231-1.626-0.465-3.252-0.7-4.877z"></path>
<path fill="#fefefe" style="fill: var(--color1, #fefefe)" d="M7.223 10.103c0.076-0.004 0.149 0.009 0.22 0.037 0.953 0.359 1.904 0.721 2.853 1.087 0.155 0.117 0.201 0.267 0.137 0.45-0.087 0.177-0.228 0.25-0.423 0.217-0.978-0.366-1.953-0.737-2.927-1.113-0.148-0.113-0.196-0.258-0.143-0.437 0.054-0.129 0.148-0.209 0.283-0.24z"></path>
<path fill="#fefefe" style="fill: var(--color1, #fefefe)" d="M15.917 10.103c0.247-0.008 0.39 0.11 0.427 0.353-0 0.137-0.056 0.245-0.167 0.323-0.97 0.373-1.941 0.742-2.913 1.107-0.173 0.041-0.309-0.011-0.41-0.157-0.103-0.199-0.066-0.367 0.11-0.503 0.982-0.382 1.967-0.756 2.953-1.123z"></path>
<path fill="#fefefe" style="fill: var(--color1, #fefefe)" d="M8.723 11.91c0.153-0.005 0.278 0.050 0.377 0.167 0.143 0.18 0.252 0.38 0.327 0.6 0.163 0.503 0.261 1.018 0.293 1.547 0.067 0.85 0.005 1.69-0.187 2.52-0.066 0.266-0.164 0.519-0.293 0.76-0.053 0.089-0.116 0.17-0.19 0.243-0.18 0.154-0.36 0.154-0.54 0-0.12-0.123-0.215-0.264-0.283-0.423-0.088-0.205-0.16-0.416-0.213-0.633-0.21-0.968-0.252-1.944-0.127-2.927 0.043-0.321 0.11-0.636 0.2-0.947 0.069-0.227 0.167-0.44 0.293-0.64 0.057-0.083 0.127-0.153 0.21-0.21 0.043-0.025 0.087-0.044 0.133-0.057z"></path>
<path fill="#fefefe" style="fill: var(--color1, #fefefe)" d="M14.403 11.91c0.153-0.005 0.278 0.050 0.377 0.167 0.143 0.18 0.252 0.38 0.327 0.6 0.117 0.354 0.199 0.716 0.247 1.087 0.118 0.93 0.087 1.854-0.093 2.773-0.063 0.321-0.168 0.627-0.313 0.92-0.069 0.131-0.162 0.243-0.277 0.337-0.172 0.106-0.332 0.091-0.48-0.047-0.12-0.123-0.215-0.264-0.283-0.423-0.108-0.254-0.19-0.516-0.247-0.787-0.207-1.061-0.216-2.123-0.027-3.187 0.058-0.305 0.147-0.601 0.267-0.887 0.063-0.14 0.143-0.269 0.24-0.387 0.073-0.080 0.161-0.136 0.263-0.167z"></path>
</symbol>
<symbol id="icon-moon" viewBox="0 0 23 28">
<path d="M19.719 20.359c-0.562 0.094-1.141 0.141-1.719 0.141-5.797 0-10.5-4.703-10.5-10.5 0-1.984 0.578-3.922 1.625-5.578-4.156 1.234-7.125 5.047-7.125 9.578 0 5.516 4.484 10 10 10 3.016 0 5.844-1.375 7.719-3.641zM22.891 19.031c-1.953 4.234-6.234 6.969-10.891 6.969-6.609 0-12-5.391-12-12 0-6.484 5.078-11.75 11.547-11.984 0.438-0.016 0.797 0.234 0.953 0.609 0.172 0.391 0.063 0.844-0.234 1.125-1.781 1.625-2.766 3.844-2.766 6.25 0 4.688 3.813 8.5 8.5 8.5 1.234 0 2.422-0.266 3.563-0.797 0.391-0.172 0.828-0.094 1.125 0.203s0.375 0.75 0.203 1.125z"></path>
</symbol>
<symbol id="icon-menu" viewBox="0 0 32 32">
<path d="M2 6h28v6h-28zM2 14h28v6h-28zM2 22h28v6h-28z"></path>
</symbol>
<symbol id="icon-sun" viewBox="0 0 32 32">
<path d="M16 8c-4.418 0-8 3.582-8 8s3.582 8 8 8 8-3.582 8-8-3.582-8-8-8zM16 21v-10c2.757 0 5 2.243 5 5s-2.243 5-5 5zM16 26c1.105 0 2 0.895 2 2v2c0 1.105-0.895 2-2 2s-2-0.895-2-2v-2c0-1.105 0.895-2 2-2zM16 6c-1.105 0-2-0.895-2-2v-2c0-1.105 0.895-2 2-2s2 0.895 2 2v2c0 1.105-0.895 2-2 2zM30 14c1.105 0 2 0.895 2 2s-0.895 2-2 2h-2c-1.105 0-2-0.895-2-2s0.895-2 2-2h2zM6 16c0 1.105-0.895 2-2 2h-2c-1.105 0-2-0.895-2-2s0.895-2 2-2h2c1.105 0 2 0.895 2 2zM25.899 23.071l1.414 1.414c0.781 0.781 0.781 2.047 0 2.828s-2.047 0.781-2.828 0l-1.414-1.414c-0.781-0.781-0.781-2.047 0-2.828s2.047-0.781 2.828 0zM6.101 8.929l-1.414-1.414c-0.781-0.781-0.781-2.047 0-2.828s2.047-0.781 2.828 0l1.414 1.414c0.781 0.781 0.781 2.047 0 2.828s-2.047 0.781-2.828 0zM25.899 8.929c-0.781 0.781-2.047 0.781-2.828 0s-0.781-2.047 0-2.828l1.414-1.414c0.781-0.781 2.047-0.781 2.828 0s0.781 2.047 0 2.828l-1.414 1.414zM6.101 23.071c0.781-0.781 2.047-0.781 2.828 0s0.781 2.047 0 2.828l-1.414 1.414c-0.781 0.781-2.047 0.781-2.828 0s-0.781-2.047 0-2.828l1.414-1.414z"></path>
</symbol>
</defs>
</svg>
